# xmcd CD database file
#
# Track frame offsets:
#	150
#	13499
#	29439
#	45597
#	56918
#	72092
#	81884
#	94318
#	112252
#	124314
#	139097
#
# Disc length: 1981 seconds
#
# Revision: 1
# Processed by: cddbd v1.5.2PL0 Copyright (c) Steve Scherf et al.
# Submitted via: Feurio! 1.68 - http://www.feurio.com
#
DISCID=a507bb0b
DTITLE=Ervin Chaffin - Songs From The Heart
DYEAR=1900
DGENRE=Country
TTITLE0=Track 01 Change Everything
TTITLE1=Track 02 Precious Memories
TTITLE2=Track 03 Forty Feet
TTITLE3=Track 04 This Ring
TTITLE4=Track 05 Patty's Song
TTITLE5=Track 06 Tennessee Hot Rod
TTITLE6=Track 07 Married Man Blues
TTITLE7=Track 08 Softly and Tenderly
TTITLE8=Track 09 Seven Come Eleven
TTITLE9=Track 10 Second Time Around
TTITLE10=Track 11 Woman Can't You Understand
EXTD=
EXTT0=
EXTT1=
EXTT2=
EXTT3=
EXTT4=
EXTT5=
EXTT6=
EXTT7=
EXTT8=
EXTT9=
EXTT10=
PLAYORDER=
